<svg xmlns="http://www.w3.org/2000/svg" width="1400" height="900" viewBox="0 0 1400 900">
  <rect width="100%" height="100%" fill="#0b1620" />
  <!-- diagonal and organic streets -->
  <g stroke="#6fa6b7" stroke-width="16" stroke-linecap="round" stroke-linejoin="round" opacity="0.95">
    <path d="M80 760 C220 600, 420 650, 560 500 C700 350, 960 420, 1180 260" />
    <path d="M40 120 C300 180, 420 200, 640 80 C860 -40, 1080 60, 1320 140" />
    <path d="M180 40 L400 320 L260 540 L520 680" stroke-width="12" stroke="#8fc5d6" />
  </g>
  <g fill="#09121a" opacity="0.9">
    <rect x="120" y="320" width="90" height="140" rx="8" />
    <rect x="340" y="200" width="120" height="120" rx="8" />
    <rect x="620" y="420" width="110" height="90" rx="8" />
    <rect x="940" y="180" width="140" height="200" rx="8" />
  </g>
  <!-- tram / river accent -->
  <path d="M1100 0 C1220 160, 1220 740, 1100 900 L1400 900 L1400 0 Z" fill="#9ad0e1" opacity="0.08" />
  <!-- circular plaza -->
  <g stroke="#8cc6d8" stroke-width="10" fill="none" opacity="0.9">
    <circle cx="680" cy="260" r="44" />
    <circle cx="680" cy="260" r="22" />
  </g>
</svg>