<svg xmlns="http://www.w3.org/2000/svg" width="1400" height="900" viewBox="0 0 1400 900">
  <rect width="100%" height="100%" fill="#07121a" />
  <!-- dense grid with curved main boulevards -->
  <g stroke="#6bb9cc" stroke-width="14" stroke-linecap="round" opacity="0.95">
    <!-- main boulevards -->
    <path d="M60 200 C220 120, 420 160, 600 200 C780 240, 980 260, 1340 220" stroke-width="18" />
    <path d="M80 680 C340 620, 540 660, 760 600 C980 540, 1180 560, 1360 620" stroke-width="16" />
  </g>
  <g stroke="#89d0e0" stroke-width="6" opacity="0.8">
    <!-- dense cross streets -->
    <path d="M120 40 V860" />
    <path d="M220 40 V860" />
    <path d="M320 40 V860" />
    <path d="M420 40 V860" />
    <path d="M520 40 V860" />
    <path d="M620 40 V860" />
    <path d="M720 40 V860" />
    <path d="M820 40 V860" />
    <path d="M920 40 V860" />
  </g>
  <g fill="#04121a" opacity="0.95">
    <rect x="140" y="140" width="80" height="110" rx="6" />
    <rect x="260" y="220" width="100" height="90" rx="6" />
    <rect x="420" y="320" width="120" height="80" rx="6" />
  </g>
</svg>